<?xml version="1.0" encoding="UTF-8" standalone="no"?>
<svg
   xmlns:dc="http://purl.org/dc/elements/1.1/"
   xmlns:cc="http://creativecommons.org/ns#"
   xmlns:rdf="http://www.w3.org/1999/02/22-rdf-syntax-ns#"
   xmlns:svg="http://www.w3.org/2000/svg"
   xmlns="http://www.w3.org/2000/svg"
   xmlns:sodipodi="http://sodipodi.sourceforge.net/DTD/sodipodi-0.dtd"
   xmlns:inkscape="http://www.inkscape.org/namespaces/inkscape"
   version="1.2"
   id="Layer_1"
   x="0px"
   y="0px"
   width="100%"
   height="100%"
   viewBox="0 0 38.76815 38.76815"
   xml:space="preserve"
   fit=""
   preserveAspectRatio="xMidYMid meet"
   focusable="false"
   inkscape:version="0.48.5 r10040"
   sodipodi:docname="arbital_site_logo.svg"><metadata
     id="metadata19773"><rdf:RDF><cc:Work
         rdf:about=""><dc:format>image/svg+xml</dc:format><dc:type
           rdf:resource="http://purl.org/dc/dcmitype/StillImage" /></cc:Work></rdf:RDF></metadata><defs
     id="defs19771" /><sodipodi:namedview
     pagecolor="#ffffff"
     bordercolor="#666666"
     borderopacity="1"
     objecttolerance="10"
     gridtolerance="10"
     guidetolerance="10"
     inkscape:pageopacity="0"
     inkscape:pageshadow="2"
     inkscape:window-width="1280"
     inkscape:window-height="1010"
     id="namedview19769"
     showgrid="false"
     fit-margin-top="0"
     fit-margin-left="0"
     fit-margin-right="0"
     fit-margin-bottom="0"
     inkscape:zoom="8"
     inkscape:cx="17.288275"
     inkscape:cy="30.496821"
     inkscape:window-x="0"
     inkscape:window-y="14"
     inkscape:window-maximized="1"
     inkscape:current-layer="Layer_1" /><rect
     style="color:#000000;fill:#0c695a;fill-opacity:1;fill-rule:evenodd;stroke:none;stroke-width:36;marker:none;visibility:visible;display:inline;overflow:visible;enable-background:accumulate"
     id="rect20285"
     width="38.76815"
     height="38.76815"
     x="-1.4379184e-07"
     y="0"
     rx="4.9377804"
     ry="4.9377804" /><g
     id="g19761"
     transform="translate(5.6340749,7.7175773)"><path
       d="m 19.166,20.979 v -0.772 c -1.035,0.404 -2.159,0.626 -3.334,0.626 -0.789,0 -1.559,-0.1 -2.291,-0.288 -0.813,-0.21 -1.584,-0.529 -2.292,-0.94 -0.032,-0.019 -0.06,-0.042 -0.091,-0.061 C 8.472,17.948 6.668,15.019 6.666,11.667 6.667,8.64 8.137,5.954 10.399,4.286 10.17,4.326 9.941,4.365 9.72,4.425 9.68,4.435 9.643,4.449 9.604,4.461 9.359,4.53 9.123,4.613 8.891,4.706 8.821,4.734 8.751,4.763 8.682,4.792 8.42,4.906 8.164,5.029 7.918,5.172 5.675,6.471 4.166,8.889 4.166,11.666 c 0,2.99 1.123,5.711 2.973,7.777 0.285,0.319 0.594,0.625 0.918,0.915 1.123,1.005 2.44,1.797 3.888,2.309 0.626,0.223 1.272,0.39 1.944,0.503 0.632,0.105 1.281,0.162 1.943,0.162 1.159,0 2.277,-0.17 3.334,-0.484 v -1.869 z"
       id="path19763"
       inkscape:connector-curvature="0"
       style="fill:#ffffff" /><path
       d="M 19.443,2.975 C 18.32,1.968 17.002,1.176 15.554,0.664 14.931,0.443 14.281,0.273 13.611,0.162 12.979,0.056 12.33,0 11.666,0 10.301,0 8.995,0.233 7.777,0.664 6.33,1.176 5.012,1.966 3.889,2.971 1.5,5.11 0.001,8.208 0,11.666 c 0.001,3.457 1.5,6.557 3.889,8.695 1.123,1.004 2.441,1.794 3.889,2.306 0.32,0.113 0.646,0.213 0.979,0.298 C 8.571,22.849 8.396,22.717 8.216,22.592 8.108,22.517 7.997,22.446 7.892,22.368 7.565,22.125 7.247,21.87 6.945,21.598 6.582,21.271 6.23,20.924 5.898,20.554 3.785,18.198 2.5,15.078 2.5,11.666 2.5,8.273 4.346,5.311 7.082,3.729 c 1.35,-0.78 2.916,-1.231 4.584,-1.231 0.789,0 1.559,0.102 2.292,0.291 0.813,0.209 1.584,0.529 2.292,0.938 2.738,1.583 4.582,4.546 4.584,7.938 -0.002,3.027 -1.473,5.713 -3.736,7.381 -0.007,0.005 -0.013,0.011 -0.02,0.016 0.237,-0.039 0.471,-0.092 0.699,-0.154 0.042,-0.011 0.082,-0.026 0.124,-0.038 0.24,-0.069 0.475,-0.151 0.704,-0.242 0.072,-0.029 0.144,-0.058 0.215,-0.089 0.261,-0.113 0.517,-0.236 0.761,-0.378 l 1.251,-0.725 v 2.562 0.98 2.354 h 2.5 v -2.351 -0.984 -8.332 c 0,-2.992 -1.123,-5.712 -2.971,-7.777 -0.287,-0.32 -0.594,-0.623 -0.918,-0.913 z"
       id="path19765"
       inkscape:connector-curvature="0"
       style="fill:#ffffff" /><path
       d="M 23.609,2.971 C 22.486,1.966 21.169,1.176 19.721,0.664 19.4,0.551 19.073,0.451 18.74,0.365 c 0.186,0.116 0.36,0.246 0.539,0.371 0.109,0.076 0.223,0.148 0.33,0.228 0.326,0.243 0.643,0.497 0.945,0.769 0.365,0.327 0.716,0.674 1.049,1.043 2.109,2.357 3.396,5.479 3.396,8.891 v 8.332 0.984 2.35 H 27.5 V 11.666 C 27.498,8.208 25.999,5.11 23.609,2.971 z"
       id="path19767"
       inkscape:connector-curvature="0"
       style="fill:#ffffff" /></g></svg>